# xmcd
#
# Track frame offsets:
#	150
#	18635
#	36656
#	53332
#	67842
#	84580
#	100610
#	116998
#	134640
#	153630
#	172398
#	188200
#	205505
#	224347
#	242624
#
# Disc length: 3493 seconds
#
# Revision: 0
# Processed by: cddbd v1.5.2PL0 Copyright (c) Steve Scherf et al.
# Submitted via: audiograbber 1.83.01
#
DISCID=d90da30f
DTITLE=Antonis Remos - Alithies Kai Psemata
DYEAR=2008
DGENRE=Greek
TTITLE0=Pote
TTITLE1=Ekato Fores Kommatia
TTITLE2=Exo Esena
TTITLE3=Then Yparxi Meta
TTITLE4=Ti Nomizes
TTITLE5=To Parathexomai
TTITLE6=Sti Fotia
TTITLE7=Kathe Fora Pou Se Thymamai
TTITLE8=Thio Psemata
TTITLE9=Eimai Akoma Etho
TTITLE10=Epitelous
TTITLE11=Mexri To Telos Tou Kosmou
TTITLE12=Se Perimeno
TTITLE13=Prosopika
TTITLE14=H Alitheia Einai
EXTD=
EXTT0=
EXTT1=
EXTT2=
EXTT3=
EXTT4=
EXTT5=
EXTT6=
EXTT7=
EXTT8=
EXTT9=
EXTT10=
EXTT11=
EXTT12=
EXTT13=
EXTT14=
PLAYORDER=
